#!OML:ASF X:\für Bonn\!DataBase\2005_08_12_Daniel\c3d\Daniel.ASF
:FULLY-SPECIFIED
:DEGREES
123
root 9.25898 9.6532 -3.18824 -1629 202.62 163.042
lowerback 83.8328 0.149429 -0.825077
upperback 11.9274 -3.89798 -7.37099
thorax -6.97413 -1.5172 -6.85619
lowerneck 5.88292 9.98385 6.2581
upperneck 6.87746 13.5261 -6.67928
head 2.18819 6.69687 -3.1464
rclavicle -7.31528e-014 -9.22361e-014
rhumerus -365.679 26.0002 302.834
rradius 55.9304
rwrist 0.608039
rhand -16.8515 740.301
rfingers 7.12502
rthumb 9.37862 710.529
lclavicle -7.31528e-014 -9.22361e-014
lhumerus -517.655 152.015 -488.158
lradius 21.248
lwrist -52.5255
lhand -32.7739 -726.55
lfingers 7.12502
lthumb -5.99591 23.3454
rfemur -618.387 -149.014 592.363
rtibia 112.89
rfoot -18.1971 17.6829
rtoes 21.7826
lfemur -54.4249 27.3173 9.25695
ltibia 140.247
lfoot -2.45109 -48.4614
ltoes 16.7689
124
root 9.3846 9.51018 -3.16058 -1628.84 203.364 162.169
lowerback 84.0644 0.129732 -0.632374
upperback 11.942 -3.84832 -7.37833
thorax -6.92323 -1.52052 -6.96459
lowerneck 5.72815 10.0279 5.96199
upperneck 6.92936 13.5547 -6.44255
head 2.18989 6.70166 -3.0059
rclavicle 1.90833e-014 5.48646e-014
rhumerus -365.574 26.4955 303.317
rradius 55.753
rwrist 0.878114
rhand -16.5398 740.666
rfingers 7.12502
rthumb 9.67937 710.908
lclavicle 1.90833e-014 5.48646e-014
lhumerus -517.317 149.935 -487.347
lradius 20.9396
lwrist -54.9183
lhand -33.6677 -726.672
lfingers 7.12502
lthumb -6.85875 23.197
rfemur -619.103 -148.892 592.897
rtibia 113.757
rfoot -17.9164 18.0535
rtoes 21.579
lfemur -53.516 30.9492 11.8476
ltibia 141.418
lfoot -2.94651 -50.4437
ltoes 17.2625
125
root 9.51034 9.36913 -3.13165 -1628.65 204.121 161.28
lowerback 84.2668 0.132801 -0.45018
upperback 11.946 -3.78319 -7.3786
thorax -6.88584 -1.51943 -7.06557
lowerneck 5.67753 10.0586 5.76586
upperneck 6.9478 13.5773 -6.3262
head 2.18042 6.70682 -2.93003
rclavicle 5.725e-014 -5.00937e-014
rhumerus -365.53 27.0401 303.78
rradius 55.6387
rwrist 1.14445
rhand -16.2896 740.938
rfingers 7.12502
rthumb 9.92077 711.192
lclavicle 5.725e-014 -5.00937e-014
lhumerus -516.944 147.869 -486.447
lradius 20.6448
lwrist -57.0004
lhand -34.4771 -727.042
lfingers 7.12502
lthumb -7.64012 22.8004
rfemur -619.813 -148.769 593.408
rtibia 114.601
rfoot -17.5984 18.4705
rtoes 21.3054
lfemur -51.7017 35.8357 15.7627
ltibia 142.55
lfoot -3.91517 -53.3002
ltoes 17.7637
126
root 9.63735 9.22517 -3.1021 -1628.43 204.878 160.337
lowerback 84.4403 0.104693 -0.212992
upperback 11.9585 -3.70299 -7.38022
thorax -6.84247 -1.51103 -7.19378
lowerneck 5.62068 10.067 5.55465
upperneck 6.95342 13.5703 -6.20365
head 2.16383 6.69741 -2.85064
rclavicle 5.40694e-014 -9.14409e-014
rhumerus -365.557 27.5618 304.298
rradius 55.6378
rwrist 1.24971
rhand -15.9061 741.17
rfingers 7.12502
rthumb 10.2907 711.442
lclavicle 5.40694e-014 -9.14409e-014
lhumerus -516.554 145.92 -485.518
lradius 20.3505
lwrist -58.7159
lhand -35.2955 -727.669
lfingers 7.12502
lthumb -8.42994 22.1432
rfemur -620.534 -148.647 593.935
rtibia 115.426
rfoot -17.1676 18.9463
rtoes 21.3046
lfemur -49.322 40.5269 20.313
ltibia 143.706
lfoot -5.72405 -56.1263
ltoes 18.207
127
root 9.76476 9.0809 -3.07179 -1628.18 205.645 159.38
lowerback 84.5456 0.0914766 0.00625836
upperback 11.9967 -3.61939 -7.37638
thorax -6.7766 -1.50391 -7.30723
lowerneck 5.55931 10.0825 5.35923
upperneck 6.97499 13.5759 -6.13761
head 2.16051 6.69376 -2.79184
rclavicle 0 1.19271e-014
rhumerus -365.541 28.056 304.827
rradius 55.653
rwrist 1.38065
rhand -15.4507 741.333
rfingers 7.12502
rthumb 10.73 711.627
lclavicle 0 1.19271e-014
lhumerus -516.204 144.086 -484.659
lradius 19.9967
lwrist -59.9996
lhand -36.2287 -728.508
lfingers 7.12502
lthumb -9.33046 21.2656
rfemur -621.297 -148.508 594.473
rtibia 116.239
rfoot -16.6931 19.4469
rtoes 21.2253
lfemur -46.1289 44.9849 25.6734
ltibia 144.841
lfoot -8.31519 -58.8476
ltoes 18.6269
